<svg width="16" height="17" viewBox="0 0 16 17" fill="none" xmlns="http://www.w3.org/2000/svg">
<g style="mix-blend-mode:overlay">
<g filter="url(#filter0_i_996_172365)">
<path fill-rule="evenodd" clip-rule="evenodd" d="M1.72449 0.263535C1.15639 0.263535 0.929134 2.29648 0.588237 5.34589C0.543178 5.7489 0.492183 6.14748 0.441775 6.54133C0.110792 9.1275 -0.194064 11.5097 1.38362 13.6047C3.20155 16.0188 7.74637 16.0188 7.74637 16.0188C7.74637 16.0188 12.2912 16.0188 14.1091 13.6047C15.6868 11.5097 15.3819 9.1275 15.051 6.54133C15.0006 6.14748 14.9496 5.7489 14.9045 5.34589C14.5636 2.29648 14.3363 0.263535 13.7683 0.263535C13.2002 0.263535 10.4733 2.29648 10.4733 2.29648C9.67788 2.04236 7.74637 2.04236 7.74637 2.04236C7.74637 2.04236 5.81485 2.04236 5.01948 2.29648C5.01948 2.29648 2.29258 0.263535 1.72449 0.263535Z" fill="#3E3E3E"/>
<path fill-rule="evenodd" clip-rule="evenodd" d="M1.72449 0.263535C1.15639 0.263535 0.929134 2.29648 0.588237 5.34589C0.543178 5.7489 0.492183 6.14748 0.441775 6.54133C0.110792 9.1275 -0.194064 11.5097 1.38362 13.6047C3.20155 16.0188 7.74637 16.0188 7.74637 16.0188C7.74637 16.0188 12.2912 16.0188 14.1091 13.6047C15.6868 11.5097 15.3819 9.1275 15.051 6.54133C15.0006 6.14748 14.9496 5.7489 14.9045 5.34589C14.5636 2.29648 14.3363 0.263535 13.7683 0.263535C13.2002 0.263535 10.4733 2.29648 10.4733 2.29648C9.67788 2.04236 7.74637 2.04236 7.74637 2.04236C7.74637 2.04236 5.81485 2.04236 5.01948 2.29648C5.01948 2.29648 2.29258 0.263535 1.72449 0.263535Z" fill="url(#paint0_linear_996_172365)" fill-opacity="0.64" style="mix-blend-mode:overlay"/>
</g>
<path d="M10.4558 2.35111L10.4839 2.36008L10.5075 2.34246L10.4733 2.29648L10.5076 2.34244L10.5077 2.34237L10.508 2.3421L10.5095 2.34101L10.5153 2.33668L10.5382 2.31974L10.6255 2.25535C10.7011 2.19985 10.8096 2.12054 10.9417 2.02536C11.206 1.83498 11.5641 1.58122 11.9398 1.32754C12.3157 1.07373 12.7084 0.820561 13.0421 0.631051C13.209 0.536255 13.3601 0.457973 13.4863 0.403554C13.6148 0.348126 13.7101 0.320887 13.7683 0.320887C13.8202 0.320887 13.872 0.343522 13.9255 0.3973C13.9799 0.451911 14.0333 0.536229 14.0852 0.652239C14.1889 0.884158 14.2802 1.22818 14.3652 1.67198C14.5352 2.55865 14.6769 3.82654 14.8475 5.35226C14.8926 5.7558 14.9437 6.15483 14.9941 6.54861C15.3256 9.13924 15.6248 11.4967 14.0633 13.5702C13.1671 14.7603 11.5937 15.36 10.2336 15.6611C9.55505 15.8113 8.9328 15.8864 8.48016 15.924C8.25389 15.9427 8.07014 15.9521 7.94309 15.9568C7.87957 15.9591 7.83023 15.9603 7.79685 15.9609L7.75897 15.9614L7.74943 15.9615L7.74708 15.9615L7.74652 15.9615H7.74639L7.74637 16.0188L7.74635 15.9615H7.74622L7.74566 15.9615L7.74331 15.9615L7.73376 15.9614L7.69589 15.9609C7.66251 15.9603 7.61317 15.9591 7.54965 15.9568C7.4226 15.9521 7.23885 15.9427 7.01258 15.924C6.55994 15.8864 5.93769 15.8113 5.25911 15.6611C3.89902 15.36 2.32561 14.7603 1.42943 13.5702C-0.132022 11.4967 0.16711 9.13924 0.498664 6.54861C0.549063 6.15483 0.600117 5.7558 0.645235 5.35226C0.815797 3.82654 0.957577 2.55865 1.12749 1.67198C1.21254 1.22818 1.30388 0.884158 1.40758 0.652239C1.45945 0.536229 1.51284 0.451911 1.56719 0.3973C1.62071 0.343522 1.67255 0.320887 1.72449 0.320887C1.78268 0.320887 1.8779 0.348126 2.00647 0.403554C2.13269 0.457973 2.28378 0.536255 2.45067 0.631051C2.7843 0.820561 3.17701 1.07373 3.55292 1.32754C3.92865 1.58122 4.28676 1.83498 4.55099 2.02536C4.68309 2.12054 4.79169 2.19985 4.86724 2.25535L4.95459 2.31974L4.97743 2.33668L4.98325 2.34101L4.98472 2.3421L4.98508 2.34237L4.98517 2.34244L5.01947 2.29648L4.9852 2.34246L5.00884 2.36008L5.03693 2.35111C5.42658 2.22662 6.10113 2.1632 6.68431 2.13139C6.97465 2.11555 7.24027 2.10763 7.43332 2.10367C7.52983 2.10169 7.60817 2.1007 7.66234 2.10021L7.72473 2.09977L7.74093 2.09972L7.74503 2.09971L7.74605 2.09971L7.7463 2.09971H7.74636L7.74637 2.04236L7.74638 2.09971H7.74644L7.74669 2.09971L7.74771 2.09971L7.75181 2.09972L7.76801 2.09977L7.83039 2.10021C7.88457 2.1007 7.96291 2.10169 8.05942 2.10367C8.25247 2.10763 8.51809 2.11555 8.80843 2.13139C9.39161 2.1632 10.0662 2.22662 10.4558 2.35111Z" stroke="url(#paint1_linear_996_172365)" stroke-width="0.114706" style="mix-blend-mode:overlay"/>
<path d="M10.4558 2.35111L10.4839 2.36008L10.5075 2.34246L10.4733 2.29648L10.5076 2.34244L10.5077 2.34237L10.508 2.3421L10.5095 2.34101L10.5153 2.33668L10.5382 2.31974L10.6255 2.25535C10.7011 2.19985 10.8096 2.12054 10.9417 2.02536C11.206 1.83498 11.5641 1.58122 11.9398 1.32754C12.3157 1.07373 12.7084 0.820561 13.0421 0.631051C13.209 0.536255 13.3601 0.457973 13.4863 0.403554C13.6148 0.348126 13.7101 0.320887 13.7683 0.320887C13.8202 0.320887 13.872 0.343522 13.9255 0.3973C13.9799 0.451911 14.0333 0.536229 14.0852 0.652239C14.1889 0.884158 14.2802 1.22818 14.3652 1.67198C14.5352 2.55865 14.6769 3.82654 14.8475 5.35226C14.8926 5.7558 14.9437 6.15483 14.9941 6.54861C15.3256 9.13924 15.6248 11.4967 14.0633 13.5702C13.1671 14.7603 11.5937 15.36 10.2336 15.6611C9.55505 15.8113 8.9328 15.8864 8.48016 15.924C8.25389 15.9427 8.07014 15.9521 7.94309 15.9568C7.87957 15.9591 7.83023 15.9603 7.79685 15.9609L7.75897 15.9614L7.74943 15.9615L7.74708 15.9615L7.74652 15.9615H7.74639L7.74637 16.0188L7.74635 15.9615H7.74622L7.74566 15.9615L7.74331 15.9615L7.73376 15.9614L7.69589 15.9609C7.66251 15.9603 7.61317 15.9591 7.54965 15.9568C7.4226 15.9521 7.23885 15.9427 7.01258 15.924C6.55994 15.8864 5.93769 15.8113 5.25911 15.6611C3.89902 15.36 2.32561 14.7603 1.42943 13.5702C-0.132022 11.4967 0.16711 9.13924 0.498664 6.54861C0.549063 6.15483 0.600117 5.7558 0.645235 5.35226C0.815797 3.82654 0.957577 2.55865 1.12749 1.67198C1.21254 1.22818 1.30388 0.884158 1.40758 0.652239C1.45945 0.536229 1.51284 0.451911 1.56719 0.3973C1.62071 0.343522 1.67255 0.320887 1.72449 0.320887C1.78268 0.320887 1.8779 0.348126 2.00647 0.403554C2.13269 0.457973 2.28378 0.536255 2.45067 0.631051C2.7843 0.820561 3.17701 1.07373 3.55292 1.32754C3.92865 1.58122 4.28676 1.83498 4.55099 2.02536C4.68309 2.12054 4.79169 2.19985 4.86724 2.25535L4.95459 2.31974L4.97743 2.33668L4.98325 2.34101L4.98472 2.3421L4.98508 2.34237L4.98517 2.34244L5.01947 2.29648L4.9852 2.34246L5.00884 2.36008L5.03693 2.35111C5.42658 2.22662 6.10113 2.1632 6.68431 2.13139C6.97465 2.11555 7.24027 2.10763 7.43332 2.10367C7.52983 2.10169 7.60817 2.1007 7.66234 2.10021L7.72473 2.09977L7.74093 2.09972L7.74503 2.09971L7.74605 2.09971L7.7463 2.09971H7.74636L7.74637 2.04236L7.74638 2.09971H7.74644L7.74669 2.09971L7.74771 2.09971L7.75181 2.09972L7.76801 2.09977L7.83039 2.10021C7.88457 2.1007 7.96291 2.10169 8.05942 2.10367C8.25247 2.10763 8.51809 2.11555 8.80843 2.13139C9.39161 2.1632 10.0662 2.22662 10.4558 2.35111Z" stroke="url(#paint2_linear_996_172365)" stroke-width="0.114706" style="mix-blend-mode:overlay"/>
</g>
<g style="mix-blend-mode:overlay">
<g filter="url(#filter1_i_996_172365)">
<path fill-rule="evenodd" clip-rule="evenodd" d="M1.72449 0.263535C1.15639 0.263535 0.929134 2.29648 0.588237 5.34589C0.543178 5.7489 0.492183 6.14748 0.441775 6.54133C0.110792 9.1275 -0.194064 11.5097 1.38362 13.6047C3.20155 16.0188 7.74637 16.0188 7.74637 16.0188C7.74637 16.0188 12.2912 16.0188 14.1091 13.6047C15.6868 11.5097 15.3819 9.1275 15.051 6.54133C15.0006 6.14748 14.9496 5.7489 14.9045 5.34589C14.5636 2.29648 14.3363 0.263535 13.7683 0.263535C13.2002 0.263535 10.4733 2.29648 10.4733 2.29648C9.67788 2.04236 7.74637 2.04236 7.74637 2.04236C7.74637 2.04236 5.81485 2.04236 5.01948 2.29648C5.01948 2.29648 2.29258 0.263535 1.72449 0.263535Z" fill="#3E3E3E"/>
<path fill-rule="evenodd" clip-rule="evenodd" d="M1.72449 0.263535C1.15639 0.263535 0.929134 2.29648 0.588237 5.34589C0.543178 5.7489 0.492183 6.14748 0.441775 6.54133C0.110792 9.1275 -0.194064 11.5097 1.38362 13.6047C3.20155 16.0188 7.74637 16.0188 7.74637 16.0188C7.74637 16.0188 12.2912 16.0188 14.1091 13.6047C15.6868 11.5097 15.3819 9.1275 15.051 6.54133C15.0006 6.14748 14.9496 5.7489 14.9045 5.34589C14.5636 2.29648 14.3363 0.263535 13.7683 0.263535C13.2002 0.263535 10.4733 2.29648 10.4733 2.29648C9.67788 2.04236 7.74637 2.04236 7.74637 2.04236C7.74637 2.04236 5.81485 2.04236 5.01948 2.29648C5.01948 2.29648 2.29258 0.263535 1.72449 0.263535Z" fill="url(#paint3_linear_996_172365)" fill-opacity="0.64" style="mix-blend-mode:overlay"/>
</g>
<path d="M10.4558 2.35111L10.4839 2.36008L10.5075 2.34246L10.4733 2.29648L10.5076 2.34244L10.5077 2.34237L10.508 2.3421L10.5095 2.34101L10.5153 2.33668L10.5382 2.31974L10.6255 2.25535C10.7011 2.19985 10.8096 2.12054 10.9417 2.02536C11.206 1.83498 11.5641 1.58122 11.9398 1.32754C12.3157 1.07373 12.7084 0.820561 13.0421 0.631051C13.209 0.536255 13.3601 0.457973 13.4863 0.403554C13.6148 0.348126 13.7101 0.320887 13.7683 0.320887C13.8202 0.320887 13.872 0.343522 13.9255 0.3973C13.9799 0.451911 14.0333 0.536229 14.0852 0.652239C14.1889 0.884158 14.2802 1.22818 14.3652 1.67198C14.5352 2.55865 14.6769 3.82654 14.8475 5.35226C14.8926 5.7558 14.9437 6.15483 14.9941 6.54861C15.3256 9.13924 15.6248 11.4967 14.0633 13.5702C13.1671 14.7603 11.5937 15.36 10.2336 15.6611C9.55505 15.8113 8.9328 15.8864 8.48016 15.924C8.25389 15.9427 8.07014 15.9521 7.94309 15.9568C7.87957 15.9591 7.83023 15.9603 7.79685 15.9609L7.75897 15.9614L7.74943 15.9615L7.74708 15.9615L7.74652 15.9615H7.74639L7.74637 16.0188L7.74635 15.9615H7.74622L7.74566 15.9615L7.74331 15.9615L7.73376 15.9614L7.69589 15.9609C7.66251 15.9603 7.61317 15.9591 7.54965 15.9568C7.4226 15.9521 7.23885 15.9427 7.01258 15.924C6.55994 15.8864 5.93769 15.8113 5.25911 15.6611C3.89902 15.36 2.32561 14.7603 1.42943 13.5702C-0.132022 11.4967 0.16711 9.13924 0.498664 6.54861C0.549063 6.15483 0.600117 5.7558 0.645235 5.35226C0.815797 3.82654 0.957577 2.55865 1.12749 1.67198C1.21254 1.22818 1.30388 0.884158 1.40758 0.652239C1.45945 0.536229 1.51284 0.451911 1.56719 0.3973C1.62071 0.343522 1.67255 0.320887 1.72449 0.320887C1.78268 0.320887 1.8779 0.348126 2.00647 0.403554C2.13269 0.457973 2.28378 0.536255 2.45067 0.631051C2.7843 0.820561 3.17701 1.07373 3.55292 1.32754C3.92865 1.58122 4.28676 1.83498 4.55099 2.02536C4.68309 2.12054 4.79169 2.19985 4.86724 2.25535L4.95459 2.31974L4.97743 2.33668L4.98325 2.34101L4.98472 2.3421L4.98508 2.34237L4.98517 2.34244L5.01947 2.29648L4.9852 2.34246L5.00884 2.36008L5.03693 2.35111C5.42658 2.22662 6.10113 2.1632 6.68431 2.13139C6.97465 2.11555 7.24027 2.10763 7.43332 2.10367C7.52983 2.10169 7.60817 2.1007 7.66234 2.10021L7.72473 2.09977L7.74093 2.09972L7.74503 2.09971L7.74605 2.09971L7.7463 2.09971H7.74636L7.74637 2.04236L7.74638 2.09971H7.74644L7.74669 2.09971L7.74771 2.09971L7.75181 2.09972L7.76801 2.09977L7.83039 2.10021C7.88457 2.1007 7.96291 2.10169 8.05942 2.10367C8.25247 2.10763 8.51809 2.11555 8.80843 2.13139C9.39161 2.1632 10.0662 2.22662 10.4558 2.35111Z" stroke="url(#paint4_linear_996_172365)" stroke-width="0.114706" style="mix-blend-mode:overlay"/>
<path d="M10.4558 2.35111L10.4839 2.36008L10.5075 2.34246L10.4733 2.29648L10.5076 2.34244L10.5077 2.34237L10.508 2.3421L10.5095 2.34101L10.5153 2.33668L10.5382 2.31974L10.6255 2.25535C10.7011 2.19985 10.8096 2.12054 10.9417 2.02536C11.206 1.83498 11.5641 1.58122 11.9398 1.32754C12.3157 1.07373 12.7084 0.820561 13.0421 0.631051C13.209 0.536255 13.3601 0.457973 13.4863 0.403554C13.6148 0.348126 13.7101 0.320887 13.7683 0.320887C13.8202 0.320887 13.872 0.343522 13.9255 0.3973C13.9799 0.451911 14.0333 0.536229 14.0852 0.652239C14.1889 0.884158 14.2802 1.22818 14.3652 1.67198C14.5352 2.55865 14.6769 3.82654 14.8475 5.35226C14.8926 5.7558 14.9437 6.15483 14.9941 6.54861C15.3256 9.13924 15.6248 11.4967 14.0633 13.5702C13.1671 14.7603 11.5937 15.36 10.2336 15.6611C9.55505 15.8113 8.9328 15.8864 8.48016 15.924C8.25389 15.9427 8.07014 15.9521 7.94309 15.9568C7.87957 15.9591 7.83023 15.9603 7.79685 15.9609L7.75897 15.9614L7.74943 15.9615L7.74708 15.9615L7.74652 15.9615H7.74639L7.74637 16.0188L7.74635 15.9615H7.74622L7.74566 15.9615L7.74331 15.9615L7.73376 15.9614L7.69589 15.9609C7.66251 15.9603 7.61317 15.9591 7.54965 15.9568C7.4226 15.9521 7.23885 15.9427 7.01258 15.924C6.55994 15.8864 5.93769 15.8113 5.25911 15.6611C3.89902 15.36 2.32561 14.7603 1.42943 13.5702C-0.132022 11.4967 0.16711 9.13924 0.498664 6.54861C0.549063 6.15483 0.600117 5.7558 0.645235 5.35226C0.815797 3.82654 0.957577 2.55865 1.12749 1.67198C1.21254 1.22818 1.30388 0.884158 1.40758 0.652239C1.45945 0.536229 1.51284 0.451911 1.56719 0.3973C1.62071 0.343522 1.67255 0.320887 1.72449 0.320887C1.78268 0.320887 1.8779 0.348126 2.00647 0.403554C2.13269 0.457973 2.28378 0.536255 2.45067 0.631051C2.7843 0.820561 3.17701 1.07373 3.55292 1.32754C3.92865 1.58122 4.28676 1.83498 4.55099 2.02536C4.68309 2.12054 4.79169 2.19985 4.86724 2.25535L4.95459 2.31974L4.97743 2.33668L4.98325 2.34101L4.98472 2.3421L4.98508 2.34237L4.98517 2.34244L5.01947 2.29648L4.9852 2.34246L5.00884 2.36008L5.03693 2.35111C5.42658 2.22662 6.10113 2.1632 6.68431 2.13139C6.97465 2.11555 7.24027 2.10763 7.43332 2.10367C7.52983 2.10169 7.60817 2.1007 7.66234 2.10021L7.72473 2.09977L7.74093 2.09972L7.74503 2.09971L7.74605 2.09971L7.7463 2.09971H7.74636L7.74637 2.04236L7.74638 2.09971H7.74644L7.74669 2.09971L7.74771 2.09971L7.75181 2.09972L7.76801 2.09977L7.83039 2.10021C7.88457 2.1007 7.96291 2.10169 8.05942 2.10367C8.25247 2.10763 8.51809 2.11555 8.80843 2.13139C9.39161 2.1632 10.0662 2.22662 10.4558 2.35111Z" stroke="url(#paint5_linear_996_172365)" stroke-width="0.114706" style="mix-blend-mode:overlay"/>
</g>
<defs>
<filter id="filter0_i_996_172365" x="-0.283042" y="0.263535" width="15.6004" height="15.9847" filterUnits="userSpaceOnUse" color-interpolation-filters="sRGB">
<feFlood flood-opacity="0" result="BackgroundImageFix"/>
<feBlend mode="normal" in="SourceGraphic" in2="BackgroundImageFix" result="shape"/>
<feColorMatrix in="SourceAlpha" type="matrix" values="0 0 0 0 0 0 0 0 0 0 0 0 0 0 0 0 0 0 127 0" result="hardAlpha"/>
<feOffset dx="-0.458824" dy="0.229412"/>
<feGaussianBlur stdDeviation="0.344118"/>
<feComposite in2="hardAlpha" operator="arithmetic" k2="-1" k3="1"/>
<feColorMatrix type="matrix" values="0 0 0 0 0 0 0 0 0 0 0 0 0 0 0 0 0 0 0.64 0"/>
<feBlend mode="overlay" in2="shape" result="effect1_innerShadow_996_172365"/>
</filter>
<filter id="filter1_i_996_172365" x="-0.283042" y="0.263535" width="15.6004" height="15.9847" filterUnits="userSpaceOnUse" color-interpolation-filters="sRGB">
<feFlood flood-opacity="0" result="BackgroundImageFix"/>
<feBlend mode="normal" in="SourceGraphic" in2="BackgroundImageFix" result="shape"/>
<feColorMatrix in="SourceAlpha" type="matrix" values="0 0 0 0 0 0 0 0 0 0 0 0 0 0 0 0 0 0 127 0" result="hardAlpha"/>
<feOffset dx="-0.458824" dy="0.229412"/>
<feGaussianBlur stdDeviation="0.344118"/>
<feComposite in2="hardAlpha" operator="arithmetic" k2="-1" k3="1"/>
<feColorMatrix type="matrix" values="0 0 0 0 0 0 0 0 0 0 0 0 0 0 0 0 0 0 0.64 0"/>
<feBlend mode="overlay" in2="shape" result="effect1_innerShadow_996_172365"/>
</filter>
<linearGradient id="paint0_linear_996_172365" x1="0.175781" y1="15.8155" x2="13.6747" y2="-9.53252" gradientUnits="userSpaceOnUse">
<stop stop-color="white"/>
<stop offset="1" stop-color="white" stop-opacity="0"/>
</linearGradient>
<linearGradient id="paint1_linear_996_172365" x1="15.317" y1="0.263534" x2="-1.26196" y2="14.3235" gradientUnits="userSpaceOnUse">
<stop stop-color="white"/>
<stop offset="1" stop-color="white" stop-opacity="0"/>
</linearGradient>
<linearGradient id="paint2_linear_996_172365" x1="15.317" y1="0.263534" x2="-1.26196" y2="14.3235" gradientUnits="userSpaceOnUse">
<stop stop-color="white"/>
<stop offset="1" stop-color="white" stop-opacity="0"/>
</linearGradient>
<linearGradient id="paint3_linear_996_172365" x1="0.175781" y1="15.8155" x2="13.6747" y2="-9.53252" gradientUnits="userSpaceOnUse">
<stop stop-color="white"/>
<stop offset="1" stop-color="white" stop-opacity="0"/>
</linearGradient>
<linearGradient id="paint4_linear_996_172365" x1="15.317" y1="0.263534" x2="-1.26196" y2="14.3235" gradientUnits="userSpaceOnUse">
<stop stop-color="white"/>
<stop offset="1" stop-color="white" stop-opacity="0"/>
</linearGradient>
<linearGradient id="paint5_linear_996_172365" x1="15.317" y1="0.263534" x2="-1.26196" y2="14.3235" gradientUnits="userSpaceOnUse">
<stop stop-color="white"/>
<stop offset="1" stop-color="white" stop-opacity="0"/>
</linearGradient>
</defs>
</svg>
